<svg xmlns="http://www.w3.org/2000/svg" width="1920" height="1080" viewBox="0 0 1920 1080">
<defs>
 <marker id="arrow" viewBox="0 0 10 10" refX="9" refY="5" markerWidth="9" markerHeight="9" orient="auto"><path d="M0 0 L10 5 L0 10Z" fill="#426889"/></marker>
 <filter id="shadow" x="-20%" y="-20%" width="140%" height="140%"><feDropShadow dx="0" dy="5" stdDeviation="7" flood-color="#173F6B" flood-opacity=".10"/></filter>
</defs>
<rect width="1920" height="1080" fill="#F8FAFC"/>
<text x="960" y="58" text-anchor="middle" font-family="Arial,sans-serif" font-size="40" font-weight="700" fill="#174A78">SƠ ĐỒ USE CASE TỔNG QUÁT LIFESYNC AI</text>
<text x="960" y="92" text-anchor="middle" font-family="Arial,sans-serif" font-size="19" fill="#60758A">Các tác nhân và nhóm chức năng chính trong phạm vi hệ thống</text>
<rect x="300" y="125" width="1300" height="885" rx="28" fill="#FFFFFF" stroke="#9CB3C7" stroke-width="3"/><text x="330" y="165" font-family="Arial,sans-serif" font-size="22" font-weight="700" fill="#174A78">HỆ THỐNG LIFESYNC AI</text><g stroke="#174A78" stroke-width="4" fill="none" stroke-linecap="round">
<circle cx="115" cy="173" r="24" fill="#F8FAFC"/><line x1="115" y1="197" x2="115" y2="267"/><line x1="73" y1="227" x2="157" y2="227"/><line x1="115" y1="267" x2="77" y2="323"/><line x1="115" y1="267" x2="153" y2="323"/></g>
<text x="115" y="357" text-anchor="middle" font-family="Arial,sans-serif" font-size="24" font-weight="700" fill="#172033">KHÁCH</text><g stroke="#174A78" stroke-width="4" fill="none" stroke-linecap="round">
<circle cx="115" cy="483" r="24" fill="#F8FAFC"/><line x1="115" y1="507" x2="115" y2="577"/><line x1="73" y1="537" x2="157" y2="537"/><line x1="115" y1="577" x2="77" y2="633"/><line x1="115" y1="577" x2="153" y2="633"/></g>
<text x="115" y="667" text-anchor="middle" font-family="Arial,sans-serif" font-size="24" font-weight="700" fill="#172033">NGƯỜI DÙNG</text><g stroke="#B35C0A" stroke-width="4" fill="none" stroke-linecap="round">
<circle cx="115" cy="793" r="24" fill="#F8FAFC"/><line x1="115" y1="817" x2="115" y2="887"/><line x1="73" y1="847" x2="157" y2="847"/><line x1="115" y1="887" x2="77" y2="943"/><line x1="115" y1="887" x2="153" y2="943"/></g>
<text x="115" y="977" text-anchor="middle" font-family="Arial,sans-serif" font-size="24" font-weight="700" fill="#172033">QUẢN TRỊ VIÊN</text><g stroke="#174A78" stroke-width="4" fill="none" stroke-linecap="round">
<circle cx="1805" cy="173" r="24" fill="#F8FAFC"/><line x1="1805" y1="197" x2="1805" y2="267"/><line x1="1763" y1="227" x2="1847" y2="227"/><line x1="1805" y1="267" x2="1767" y2="323"/><line x1="1805" y1="267" x2="1843" y2="323"/></g>
<text x="1805" y="357" text-anchor="middle" font-family="Arial,sans-serif" font-size="24" font-weight="700" fill="#172033">OAUTH</text><g stroke="#0B7B70" stroke-width="4" fill="none" stroke-linecap="round">
<circle cx="1805" cy="483" r="24" fill="#F8FAFC"/><line x1="1805" y1="507" x2="1805" y2="577"/><line x1="1763" y1="537" x2="1847" y2="537"/><line x1="1805" y1="577" x2="1767" y2="633"/><line x1="1805" y1="577" x2="1843" y2="633"/></g>
<text x="1805" y="667" text-anchor="middle" font-family="Arial,sans-serif" font-size="24" font-weight="700" fill="#172033">AI PROVIDER</text><g stroke="#A06B00" stroke-width="4" fill="none" stroke-linecap="round">
<circle cx="1805" cy="673" r="24" fill="#F8FAFC"/><line x1="1805" y1="697" x2="1805" y2="767"/><line x1="1763" y1="727" x2="1847" y2="727"/><line x1="1805" y1="767" x2="1767" y2="823"/><line x1="1805" y1="767" x2="1843" y2="823"/></g>
<text x="1805" y="857" text-anchor="middle" font-family="Arial,sans-serif" font-size="24" font-weight="700" fill="#172033">CỔNG THANH TOÁN</text><ellipse cx="500" cy="215" rx="155" ry="43" fill="#EAF4FF" stroke="#174A78" stroke-width="3" filter="url(#shadow)"/><text x="500" y="222" text-anchor="middle" font-family="Arial,sans-serif" font-size="22" font-weight="600" fill="#172033">Đăng ký tài khoản</text><ellipse cx="830" cy="215" rx="175" ry="43" fill="#EAF4FF" stroke="#174A78" stroke-width="3" filter="url(#shadow)"/><text x="830" y="222" text-anchor="middle" font-family="Arial,sans-serif" font-size="22" font-weight="600" fill="#172033">Đăng nhập và khôi phục</text><polyline points="155,210 345,210" fill="none" stroke="#426889" stroke-width="3" stroke-linecap="round" stroke-linejoin="round"/><polyline points="155,280 285,280 285,300 830,300 830,258" fill="none" stroke="#426889" stroke-width="3" stroke-linecap="round" stroke-linejoin="round"/><polyline points="1005,215 1765,210" fill="none" stroke="#426889" stroke-width="3" stroke-linecap="round" stroke-linejoin="round"/><text x="1535" y="197" font-family="Arial,sans-serif" font-size="17" fill="#60758A">Google / Facebook</text><ellipse cx="1110" cy="330" rx="190" ry="31" fill="#E9F9FA" stroke="#174A78" stroke-width="3" filter="url(#shadow)"/><text x="1110" y="337" text-anchor="middle" font-family="Arial,sans-serif" font-size="19" font-weight="600" fill="#172033">Quản lý hồ sơ</text><ellipse cx="1110" cy="410" rx="190" ry="31" fill="#E9F9FA" stroke="#174A78" stroke-width="3" filter="url(#shadow)"/><text x="1110" y="417" text-anchor="middle" font-family="Arial,sans-serif" font-size="19" font-weight="600" fill="#172033">Quản lý công việc và lịch</text><ellipse cx="1110" cy="490" rx="190" ry="31" fill="#E9F9FA" stroke="#174A78" stroke-width="3" filter="url(#shadow)"/><text x="1110" y="497" text-anchor="middle" font-family="Arial,sans-serif" font-size="19" font-weight="600" fill="#172033">Dashboard, Focus và thông báo</text><ellipse cx="1110" cy="570" rx="190" ry="31" fill="#F3F0FF" stroke="#174A78" stroke-width="3" filter="url(#shadow)"/><text x="1110" y="577" text-anchor="middle" font-family="Arial,sans-serif" font-size="19" font-weight="600" fill="#172033">Trợ lý AI</text><ellipse cx="1110" cy="650" rx="190" ry="31" fill="#E9F9FA" stroke="#174A78" stroke-width="3" filter="url(#shadow)"/><text x="1110" y="657" text-anchor="middle" font-family="Arial,sans-serif" font-size="19" font-weight="600" fill="#172033">Sức khỏe và GPS</text><ellipse cx="1110" cy="730" rx="190" ry="31" fill="#FFF6D9" stroke="#174A78" stroke-width="3" filter="url(#shadow)"/><text x="1110" y="737" text-anchor="middle" font-family="Arial,sans-serif" font-size="19" font-weight="600" fill="#172033">Thuê bao và thanh toán</text><ellipse cx="1110" cy="810" rx="190" ry="31" fill="#E9F9FA" stroke="#174A78" stroke-width="3" filter="url(#shadow)"/><text x="1110" y="817" text-anchor="middle" font-family="Arial,sans-serif" font-size="19" font-weight="600" fill="#172033">Thiết lập cá nhân</text><polyline points="155,520 920,330" fill="none" stroke="#426889" stroke-width="2.4" stroke-linecap="round" stroke-linejoin="round"/><polyline points="155,520 920,410" fill="none" stroke="#426889" stroke-width="2.4" stroke-linecap="round" stroke-linejoin="round"/><polyline points="155,520 920,490" fill="none" stroke="#426889" stroke-width="2.4" stroke-linecap="round" stroke-linejoin="round"/><polyline points="155,520 920,570" fill="none" stroke="#426889" stroke-width="2.4" stroke-linecap="round" stroke-linejoin="round"/><polyline points="155,520 920,650" fill="none" stroke="#426889" stroke-width="2.4" stroke-linecap="round" stroke-linejoin="round"/><polyline points="155,520 920,730" fill="none" stroke="#426889" stroke-width="2.4" stroke-linecap="round" stroke-linejoin="round"/><polyline points="155,520 920,810" fill="none" stroke="#426889" stroke-width="2.4" stroke-linecap="round" stroke-linejoin="round"/><polyline points="1300,570 1765,520" fill="none" stroke="#287B73" stroke-width="3" stroke-linecap="round" stroke-linejoin="round"/><polyline points="1300,730 1640,730 1640,710 1765,710" fill="none" stroke="#9A700D" stroke-width="3" stroke-linecap="round" stroke-linejoin="round"/><ellipse cx="1200" cy="870" rx="185" ry="24" fill="#FFF6D9" stroke="#B35C0A" stroke-width="3" filter="url(#shadow)"/><text x="1200" y="877" text-anchor="middle" font-family="Arial,sans-serif" font-size="17" font-weight="600" fill="#172033">Quản lý người dùng</text><ellipse cx="1200" cy="925" rx="185" ry="24" fill="#FFF6D9" stroke="#B35C0A" stroke-width="3" filter="url(#shadow)"/><text x="1200" y="932" text-anchor="middle" font-family="Arial,sans-serif" font-size="17" font-weight="600" fill="#172033">Theo dõi vận hành</text><ellipse cx="1200" cy="980" rx="185" ry="24" fill="#FFF6D9" stroke="#B35C0A" stroke-width="3" filter="url(#shadow)"/><text x="1200" y="987" text-anchor="middle" font-family="Arial,sans-serif" font-size="17" font-weight="600" fill="#172033">Quản lý nội dung và gói</text><polyline points="155,830 1015,870" fill="none" stroke="#A76722" stroke-width="2.7" stroke-linecap="round" stroke-linejoin="round"/><polyline points="155,830 1015,925" fill="none" stroke="#A76722" stroke-width="2.7" stroke-linecap="round" stroke-linejoin="round"/><polyline points="155,830 1015,980" fill="none" stroke="#A76722" stroke-width="2.7" stroke-linecap="round" stroke-linejoin="round"/></svg>